<svg xmlns="http://www.w3.org/2000/svg" width="585.813" height="166.166" viewBox="0 0 585.813 166.166"><path fill-rule="evenodd" clip-rule="evenodd" fill="#FFF" d="M530.482 5.247c-35.988-13.933-84.65.928-103.732 45.182-18.166 42.132 1.873 86.062 34.214 103.928 2.907-6.238 5.812-12.469 8.739-18.753-12.547-8.306-21.395-19.344-25.951-33.599-4.572-14.301-3.984-28.497 1.684-42.385 5.145-12.607 13.604-22.544 25.279-29.545 16.025-9.607 33.092-11.468 51.016-6.043 2.937-6.307 5.824-12.502 8.751-18.785z"/><path fill-rule="evenodd" clip-rule="evenodd" d="M498.5 166.166c-1.586-.197-3.169-.407-4.756-.59-5.869-.677-11.592-1.997-17.182-3.903-.185-.063-.357-.159-.695-.313l8.842-18.958c17.299 5.258 33.8 3.429 49.395-5.523 11.906-6.835 20.516-16.723 25.982-29.315 3.918-9.026 5.457-18.491 4.865-28.29-.59-9.762-3.396-18.875-8.354-27.308-4.982-8.474-11.647-15.364-19.978-20.873l8.787-18.85c.409.193.773.319 1.088.521 20.689 13.275 33.597 31.856 38.116 56.103.522 2.807.635 5.69.949 8.537.053.486.166.967.252 1.45v8.761c-.087.481-.242.96-.25 1.442-.068 4.296-.783 8.505-1.768 12.667-4.719 19.975-15.327 36.117-31.803 48.329-11.932 8.844-25.355 13.994-40.137 15.573-1.434.153-2.861.359-4.293.54h-9.06zm-309.674 0c.194-.563.339-1.148.589-1.685 11.106-23.849 22.219-47.694 33.336-71.538 13.073-28.038 26.15-56.074 39.226-84.11 1.318-2.826 2.639-5.651 3.983-8.53h24.894c-.232.566-.401 1.027-.607 1.47-10.9 23.389-21.803 46.777-32.707 70.165l-41.516 89.038c-.807 1.731-1.616 3.461-2.424 5.191l-24.774-.001zM0 165.562c.757-.038.737-.744.948-1.188 1.983-4.181 3.931-8.378 5.886-12.572L76.346 2.754c.36-.772.718-1.546 1.179-2.541.308.617.536 1.043.738 1.482 3.721 8.088 7.424 16.184 11.178 24.256.407.876.348 1.561-.044 2.4-21.161 45.349-42.304 90.706-63.451 136.06-.276.592-.58 1.17-.87 1.755H0v-.604zm351.971.604V.524c1.123-.356 18.736-.455 20.847-.113v165.755h-20.847zm-221.757 0c-.132-.42-.219-.862-.402-1.259a100171.631 100171.631 0 0 0-42.077-91.243c-.46-.996-.522-1.793-.039-2.816 3.76-7.957 7.457-15.943 11.177-23.918.19-.407.412-.799.719-1.391.33.679.594 1.203.84 1.735 13.444 29.076 26.888 58.152 40.33 87.229a51510.78 51510.78 0 0 1 13.983 30.267c.209.453.364.931.544 1.397l-25.075-.001zM248.343 0l-9.731 20.784H188.59c-.139-1.753-.044-3.497-.062-5.233-.017-1.711-.003-3.422-.003-5.133V5.133L188.524 0h59.819zm-15.71 166.166c.046-.243.044-.509.145-.726 3.095-6.659 6.199-13.312 9.333-20.033h48.846c.045.38.13.763.131 1.146.008 6.141.008 12.283 0 18.424-.002.396-.095.793-.146 1.189h-58.309zM530.482 5.247l-8.752 18.784c-17.924-5.425-34.99-3.563-51.016 6.043-11.676 7-20.135 16.938-25.279 29.545-5.668 13.888-6.256 28.084-1.684 42.385 4.557 14.255 13.404 25.293 25.951 33.599l-8.739 18.753c-32.341-17.866-52.38-61.796-34.214-103.928C445.832 6.175 494.494-8.686 530.482 5.247z"/></svg>