<?xml version="1.0" encoding="UTF-8"?>
<svg width="284px" height="60px" viewBox="0 0 284 60" version="1.1" xmlns="http://www.w3.org/2000/svg" xmlns:xlink="http://www.w3.org/1999/xlink">
    <!-- Generator: Sketch 52.6 (67491) - http://www.bohemiancoding.com/sketch -->
    <title>Black Logo</title>
    <desc>Created with Sketch.</desc>
    <g id="Black-Logo" stroke="none" stroke-width="1" fill="none" fill-rule="evenodd">
        <g id="logo--white" fill="#000000" fill-rule="nonzero">
            <path d="M11.7421756,40.8008192 C11.1989406,39.2592216 10.9572471,37.3022596 10.9572471,34.6932281 C10.9572471,32.0841967 11.1989406,30.1272346 11.7421756,28.585637 C13.190802,24.1975492 16.992679,21.7664234 22.0022563,21.7664234 C25.7442855,21.7664234 28.6415383,23.2492217 30.6326324,25.6207942 C30.8137107,25.7986999 30.8137107,26.1545112 30.5727844,26.3324169 L27.313375,29.1789071 C27.0716815,29.3568128 26.7701402,29.3568128 26.5890618,29.0598008 C25.3215137,27.6961088 24.0539656,26.9256869 22.0022563,26.9256869 C19.7694687,26.9256869 18.0791489,27.9931207 17.3548357,30.1272346 C16.992679,31.372574 16.872216,32.7958192 16.872216,34.6932281 C16.872216,36.5906369 16.992679,38.0734353 17.4154508,39.3187747 C18.139764,41.3940893 19.8293166,42.5203225 22.0628715,42.5203225 C24.1145808,42.5203225 25.4427441,41.7499005 26.649677,40.3854548 C26.8307553,40.1487498 27.1322967,40.1487498 27.3739902,40.3266555 L30.6326324,43.1723919 C30.8743258,43.3502975 30.8137107,43.6473094 30.6932476,43.8840144 C28.7013863,46.1967877 25.8049007,47.6788321 22.0628715,47.6788321 C17.0532943,47.6200328 13.190802,45.2477064 11.7421756,40.8008192" id="Fill-1"></path>
            <path d="M122.50068,40.8008192 C121.956431,39.2592216 121.714286,37.3022596 121.714286,34.6932281 C121.714286,32.0841967 121.956431,30.1272346 122.50068,28.585637 C123.952012,24.1975492 127.76099,21.7664234 132.779925,21.7664234 C136.528943,21.7664234 139.491566,23.2492217 141.426419,25.6207942 C141.607837,25.7986999 141.607837,26.1545112 141.366461,26.3324169 L138.100963,29.1789071 C137.858818,29.3568128 137.556714,29.3568128 137.375297,29.0598008 C136.105382,27.6961088 134.835466,26.9256869 132.779925,26.9256869 C130.542966,26.9256869 128.84949,27.9931207 128.123823,30.1272346 C127.701031,31.372574 127.579574,32.7958192 127.579574,34.6932281 C127.579574,36.5906369 127.701031,38.0734353 128.123823,39.3187747 C128.84949,41.3940893 130.542966,42.5203225 132.779925,42.5203225 C134.835466,42.5203225 136.16611,41.7499005 137.375297,40.3854548 C137.556714,40.1487498 137.858818,40.1487498 138.100963,40.3266555 L141.366461,43.1723919 C141.607837,43.3502975 141.547877,43.6473094 141.426419,43.8840144 C139.431607,46.1967877 136.528943,47.6788321 132.779925,47.6788321 C127.76099,47.6200328 123.952012,45.2477064 122.50068,40.8008192" id="Fill-3"></path>
            <path d="M252.236524,47.1747174 C251.939627,47.1747174 251.701656,46.9957698 251.701656,46.6378744 L251.701656,32.3235775 C251.701656,29.1025195 250.097051,26.8960038 247.066885,26.8960038 C244.095646,26.8960038 242.372433,29.1025195 242.372433,32.3235775 L242.372433,46.6378744 C242.372433,46.9358678 242.194143,47.1747174 241.837565,47.1747174 L237.143113,47.1747174 C236.84546,47.1747174 236.608244,46.9957698 236.608244,46.6378744 L236.608244,32.3235775 C236.608244,29.1025195 235.003639,26.8960038 231.972718,26.8960038 C229.001479,26.8960038 227.278266,29.1025195 227.278266,32.3235775 L227.278266,46.6378744 C227.278266,46.9358678 227.099977,47.1747174 226.743398,47.1747174 L222.048945,47.1747174 C221.752049,47.1747174 221.514077,46.9957698 221.514077,46.6378744 L221.514077,22.8401093 C221.514077,22.542116 221.692366,22.3032663 222.048945,22.3032663 L226.743398,22.3032663 C227.041051,22.3032663 227.278266,22.482214 227.278266,22.8401093 L227.278266,24.629586 L227.337947,24.629586 C228.407685,23.078959 230.546403,21.7664234 233.815295,21.7664234 C236.726852,21.7664234 239.044615,22.959155 240.529857,25.0466251 L240.589538,25.0466251 C242.491041,22.959155 244.927412,21.7664234 248.433519,21.7664234 C254.138026,21.7664234 257.347237,25.703272 257.347237,31.0110418 L257.347237,46.6977764 C257.347237,46.9957698 257.168947,47.2346194 256.812368,47.2346194 L252.236524,47.1747174 Z" id="Fill-5"></path>
            <path d="M264.403807,56.0587679 C264.100244,56.0587679 263.856929,55.8792109 263.856929,55.5200969 L263.856929,51.3910467 C263.856929,51.0912778 264.039221,50.8523756 264.403807,50.8523756 L265.31527,50.8523756 C267.32049,50.8523756 268.292203,49.9545906 269.082396,47.9193575 L269.811566,45.8247795 L260.636682,22.3050944 C260.515411,22.0060863 260.757954,21.7664234 261.062289,21.7664234 L266.226734,21.7664234 C266.530297,21.7664234 266.773612,21.9459804 266.833861,22.3050944 L272.484935,38.5831542 L272.606206,38.5831542 L278.013965,22.3050944 C278.135236,22.0060863 278.317528,21.7664234 278.621092,21.7664234 L283.542995,21.7664234 C283.846559,21.7664234 284.089873,21.9459804 283.96783,22.3050944 L274.489382,48.3385776 C272.302642,54.2631979 270.236401,56.1188738 266.044442,56.1188738 L264.403807,56.0587679 Z" id="Fill-7"></path>
            <path d="M49.8702231,39.2987614 C50.296981,37.9916185 50.4185799,36.8023451 50.4185799,34.72225 C50.4185799,32.6421549 50.296981,31.5133274 49.8702231,30.1457385 C49.1390806,28.0656434 47.4940102,26.9368159 45.178984,26.9368159 C42.8639578,26.9368159 41.1584752,28.1253337 40.4273328,30.1457385 C40.0005749,31.4536371 39.878976,32.5824645 39.878976,34.72225 C39.878976,36.8023451 40.0005749,37.9916185 40.4273328,39.2987614 C41.1584752,41.3788565 42.8035456,42.5084396 45.178984,42.5084396 C47.4940102,42.5673744 49.1390806,41.3788565 49.8702231,39.2987614 M34.7617536,40.8439102 C34.2133968,39.1204459 33.9082377,37.4566721 33.9082377,34.72225 C33.9082377,31.9885834 34.15221,30.3837443 34.7617536,28.6005898 C36.1628517,24.2620841 40.0005749,21.7664234 45.1185718,21.7664234 C50.1746076,21.7664234 54.0131052,24.2620841 55.4142034,28.6005898 C55.9625602,30.324054 56.2669447,31.9885834 56.2669447,34.72225 C56.2669447,37.4566721 56.0237469,39.0607556 55.4142034,40.8439102 C54.0131052,45.1824159 50.1746076,47.6788321 45.1185718,47.6788321 C40.0617617,47.6788321 36.2232639,45.1824159 34.7617536,40.8439102" id="Fill-9"></path>
            <path d="M155.487885,21.7664234 C151.384549,21.7664234 148.668936,22.7198594 146.678254,24.2087041 C146.497213,24.387426 146.436611,24.6259743 146.557049,24.8637654 L148.488662,28.2594821 C148.668936,28.4972732 148.971182,28.5570996 149.212058,28.3783776 C150.419509,27.4256989 152.108712,26.6509848 154.88416,26.6509848 C158.927661,26.6509848 160.315385,27.8422119 160.435823,30.5230409 L160.435823,30.5828673 L160.435823,30.7615892 L160.435823,38.8033191 C160.435823,41.6621127 158.444374,43.0320619 154.88416,43.0320619 C152.108712,43.0320619 150.600549,42.0195566 150.600549,39.9347198 C150.600549,37.6113347 152.22915,36.5988294 155.970405,36.5988294 L157.117253,36.5988294 C157.418732,36.5988294 157.660376,36.4201075 157.660376,36.0626636 L157.660376,32.7865997 C157.660376,32.4889822 157.479334,32.2504339 157.117253,32.2504339 L156.875609,32.2504339 L155.065201,32.2504339 C148.91058,32.2504339 145.109489,34.752541 145.109489,40.1134418 C145.109489,45.2956206 148.91058,47.6788321 153.496436,47.6788321 C156.996047,47.6788321 159.349578,46.487605 160.496427,44.8192811 L160.556261,44.8192811 L160.556261,46.6065005 C160.556261,46.904118 160.737303,47.1426663 161.099385,47.1426663 L165.444365,47.1426663 C165.745843,47.1426663 165.987487,46.9639444 165.987487,46.6065005 L165.987487,30.4632145 C165.866281,24.387426 163.090834,21.7664234 155.487885,21.7664234" id="Fill-11"></path>
            <path d="M95.2198725,32.2265892 C95.0982737,32.2265892 94.9759002,32.2862796 94.9759002,32.464595 L94.9759002,32.5832201 L94.9759002,32.9995413 L94.9759002,35.7332079 L94.9759002,36.0898388 L94.9759002,36.327089 C94.9759002,36.4464697 95.0370869,36.5650948 95.2198725,36.5650948 L95.3414714,36.5650948 L108.135689,36.5650948 C108.501261,36.5650948 108.684046,36.3867794 108.684046,36.0301485 C108.684046,32.0482738 108.440074,30.3248095 107.83053,28.6013453 C106.429433,24.3814648 102.652121,21.7664234 97.473712,21.7664234 C92.4780884,21.7664234 88.5791783,24.2628397 87.1780803,28.6013453 C86.6297234,30.2061844 86.3253389,32.1668989 86.3253389,34.7230056 C86.3253389,37.2783567 86.6909102,39.1801363 87.2392669,40.7849754 C88.6403651,45.123481 92.4176762,47.6788321 97.7176844,47.6788321 C102.347736,47.6788321 105.881076,45.955368 108.074503,43.4597072 C108.257288,43.2217014 108.257288,42.9247609 108.013316,42.7464454 L104.967148,40.0717136 C104.723949,39.8933982 104.419565,39.8933982 104.175593,40.1903387 C102.896094,41.5579275 101.129424,42.56813 98.2660412,42.56813 C95.4638448,42.56813 93.4532031,41.2602314 92.660874,38.8235054 C92.5392751,38.4668745 92.4176762,38.1102436 92.3564895,37.7536127 C92.1737039,36.6837199 92.052105,35.6735176 92.052105,34.1880591 C92.1125172,32.7615356 92.1737039,31.8699583 92.3564895,30.7411308 L92.3564895,30.6814404 L92.3564895,30.6217501 C92.4176762,30.3248095 92.4780884,30.0868038 92.5392751,29.8495535 C93.2092308,27.8283932 95.0982737,26.6398754 97.473712,26.6398754 C99.849925,26.6398754 101.677781,27.8283932 102.347736,29.8495535 C102.530523,30.4434346 102.652121,31.0970061 102.652121,31.9296487 C102.652121,32.1079641 102.530523,32.2265892 102.347736,32.2265892 L95.524257,32.2265892 L95.2198725,32.2265892 Z" id="Fill-13"></path>
            <path d="M80.558392,11.8456726 L75.9435678,11.8456726 C75.6517066,11.8456726 75.417772,12.0247227 75.417772,12.3828228 L75.417772,24.4375978 L75.417772,34.4037078 L75.417772,34.4636441 L75.417772,34.5235803 L75.417772,35.8361086 C75.3591026,37.2685093 75.1838373,38.2229373 74.9506454,39.0590102 C74.307511,41.147675 72.730866,42.2219755 70.4524172,42.2219755 C68.2326378,42.2219755 66.6552501,41.0877388 66.0128583,39.0590102 C65.6623277,37.9247733 65.4870624,36.6714228 65.4870624,34.4037078 C65.4870624,32.1359929 65.6623277,30.8826423 66.0128583,29.7491641 C66.6552501,27.719677 68.1739684,26.5861988 70.3358212,26.5262625 L72.3216661,26.5262625 C72.438262,26.5262625 72.4969314,26.4071487 72.4969314,26.2880349 L72.4969314,21.5727964 C72.4969314,21.4536824 72.438262,21.3937462 72.3216661,21.3345686 L70.7442785,21.3345686 L68.8750295,21.3345686 C64.8446706,21.3937462 61.92383,23.3632972 60.696973,27.3023992 C60.1125078,29.2120139 59.8206465,30.9425786 59.8206465,34.284594 C59.8206465,37.6266094 60.0545811,39.3571741 60.696973,41.2667889 C61.92383,45.2650684 64.9612666,47.2346194 69.0502949,47.2346194 C72.3216661,47.2346194 74.307511,45.9812687 75.417772,44.3106404 L75.4764413,44.3106404 L75.4764413,46.1603188 C75.4764413,46.4584828 75.6517066,46.6974691 76.0022371,46.6974691 L80.6170613,46.6974691 C80.9089226,46.6974691 81.1428571,46.5184191 81.1428571,46.1603188 L81.1428571,12.1438365 C81.0841879,12.0247227 80.8502533,11.8456726 80.558392,11.8456726" id="Fill-15"></path>
            <path d="M204.348131,32.2265892 C204.226532,32.2265892 204.104158,32.2862796 204.104158,32.464595 L204.104158,32.5832201 L204.104158,32.9995413 L204.104158,35.7332079 L204.104158,36.0898388 L204.104158,36.327089 C204.104158,36.4464697 204.165346,36.5650948 204.348131,36.5650948 L204.46973,36.5650948 L217.263948,36.5650948 C217.629519,36.5650948 217.812304,36.3867794 217.812304,36.0301485 C217.812304,32.0482738 217.568333,30.3248095 216.958789,28.6013453 C215.557691,24.3814648 211.78038,21.7664234 206.60197,21.7664234 C201.606347,21.7664234 197.707437,24.2628397 196.306339,28.6013453 C195.757982,30.2061844 195.453597,32.1668989 195.453597,34.7230056 C195.453597,37.2783567 195.819169,39.1801363 196.367526,40.7849754 C197.768624,45.123481 201.545934,47.6788321 206.845943,47.6788321 C211.475995,47.6788321 215.009335,45.955368 217.202761,43.4597072 C217.385547,43.2217014 217.385547,42.9247609 217.141575,42.7464454 L214.096181,40.0717136 C213.852208,39.8933982 213.547824,39.8933982 213.303851,40.1903387 C212.024353,41.5579275 210.257683,42.56813 207.3943,42.56813 C204.592104,42.56813 202.581461,41.2602314 201.789133,38.8235054 C201.667534,38.4668745 201.545934,38.1102436 201.484748,37.7536127 C201.301963,36.6837199 201.180364,35.6735176 201.180364,34.1880591 C201.240776,32.7615356 201.301963,31.8699583 201.484748,30.7411308 L201.484748,30.6814404 L201.484748,30.6217501 C201.545934,30.3248095 201.606347,30.0868038 201.667534,29.8495535 C202.33749,27.8283932 204.226532,26.6398754 206.60197,26.6398754 C208.978183,26.6398754 210.806039,27.8283932 211.475995,29.8495535 C211.658781,30.4434346 211.78038,31.0970061 211.78038,31.9296487 C211.78038,32.1079641 211.658781,32.2265892 211.475995,32.2265892 L204.652516,32.2265892 L204.348131,32.2265892 Z" id="Fill-17"></path>
            <path d="M191.820385,11.8456726 L186.99434,11.8456726 C186.689121,11.8456726 186.444479,12.0238213 186.444479,12.3801188 L186.444479,24.3742098 L186.444479,34.2901502 L186.444479,34.3497847 L186.444479,34.4094193 L186.444479,35.7749747 C186.383125,37.1994098 186.199837,38.1497882 185.955972,38.9808973 C185.283402,41.0590478 183.634593,42.1875748 181.25186,42.1875748 C178.869127,42.1875748 177.280896,41.0590478 176.609102,38.9808973 C176.242527,37.8531251 176.05924,36.6060839 176.05924,34.3497847 C176.05924,32.0934855 176.242527,30.8464443 176.609102,29.7179173 C177.280896,27.6994014 178.869127,26.5708743 181.129927,26.5119947 L183.206664,26.5119947 C183.511884,26.5119947 183.756526,26.3338459 183.756526,25.9775484 L183.756526,21.8801273 C183.756526,21.5834643 183.573238,21.345681 183.206664,21.345681 L182.962023,21.345681 L179.846917,21.345681 L179.785563,21.345681 L179.724207,21.345681 L179.663629,21.345681 C175.448025,21.4053155 172.332919,23.3649518 171.049908,27.2834694 C170.438693,29.183471 170.133472,30.9060789 170.133472,34.2901502 C170.133472,37.6153418 170.378115,39.3968293 171.049908,41.2968311 C172.332919,45.2749831 175.509379,47.2346194 179.785563,47.2346194 C183.206664,47.2346194 185.283402,45.9875781 186.505833,44.3253598 L186.566411,44.3253598 L186.566411,46.1657268 C186.566411,46.4623899 186.749699,46.7001732 187.116273,46.7001732 L191.942318,46.7001732 C192.248314,46.7001732 192.492179,46.5220244 192.492179,46.1657268 L192.492179,12.3204843 C192.370247,12.0238213 192.125605,11.8456726 191.820385,11.8456726" id="Fill-19"></path>
            <path d="M6.96752424,53.8385819 L5.98007378,53.8385819 C6.09872318,53.7790972 5.98007378,53.6013963 5.98007378,53.8385819 L5.98007378,10.9671185 L5.98007378,5.98206465 C5.98007378,6.21925021 6.09872318,6.04154928 5.98007378,5.98206465 L6.96752424,5.98206465 L111.637272,5.98206465 L112.624723,5.98206465 C112.505318,6.04154928 112.624723,6.21925021 112.624723,5.98206465 L112.624723,52.8415711 C112.624723,53.5426647 112.505318,53.7203656 112.624723,53.8385819 L111.637272,53.8385819 L6.96752424,53.8385819 Z M118.604797,0 C118.485537,0.179479431 118.485537,0.119399452 118.604797,0 C118.485537,0.119399452 118.485537,0.119399452 118.604797,0 C118.366277,0.0600799791 118.246258,0 117.608118,0 L0.996678964,0 L0,0 C0.119259585,0.119399452 0,0.298878883 0,0.997010775 L0,59.8206465 C0,59.5217676 0.0592499849,59.6411671 0,59.8206465 L117.608118,59.8206465 C118.246258,59.8206465 118.366277,59.7613271 118.604797,59.8206465 C118.545547,59.5818476 118.604797,59.4616876 118.604797,58.8236357 L118.604797,0.997010775 L118.604797,0 Z" id="Fill-23"></path>
            <path d="M122.750782,58.8581856 C122.750782,59.5822388 122.927619,59.8206465 123.7626,59.8206465 L139.951686,59.8206465 C140.727471,59.8206465 140.963504,59.6420299 140.963504,58.8581856 L140.963504,55.008342 C140.963504,54.2842889 140.786666,54.0458811 139.951686,54.0458811 L123.7626,54.0458811 C122.897916,54.0458811 122.750782,54.2244977 122.750782,55.008342 L122.750782,58.8581856 Z" id="Fill-21"></path>
        </g>
    </g>
</svg>